<?xml version="1.0" encoding="utf-8"?>
<!-- Generator: Adobe Illustrator 19.0.0, SVG Export Plug-In . SVG Version: 6.00 Build 0)  -->
<svg version="1.1" id="Layer_1" xmlns="http://www.w3.org/2000/svg" xmlns:xlink="http://www.w3.org/1999/xlink" x="0px" y="0px"
	 viewBox="0 0 200 200" style="enable-background:new 0 0 200 200;" xml:space="preserve">
<style type="text/css">
	.st0{fill:#00a8ff;}
</style>
<g>
	<path class="st0" d="M72.6,80.5c0-0.1,0-0.2,0-0.3C72.6,80.3,72.6,80.4,72.6,80.5z"/>
	<path class="st0" d="M72.6,80.2c0-0.2,0-0.3,0.1-0.4C72.7,79.9,72.7,80,72.6,80.2z"/>
	<path class="st0" d="M72.7,79.7c0-0.1,0-0.1,0-0.2C72.7,79.6,72.7,79.7,72.7,79.7z"/>
	<path class="st0" d="M72.5,81.5C72.5,81.4,72.5,81.4,72.5,81.5C72.5,81.4,72.5,81.5,72.5,81.5z"/>
	<path class="st0" d="M72.5,81.2c0-0.3,0.1-0.5,0.1-0.7C72.6,80.8,72.5,81,72.5,81.2z"/>
	<path class="st0" d="M72.7,79.6C72.7,79.5,72.7,79.5,72.7,79.6L72.7,79.6z"/>
	<path class="st0" d="M72.5,81.4c0,0,0-0.1,0-0.2C72.5,81.2,72.5,81.3,72.5,81.4z"/>
	<path class="st0" d="M79.7,72.6C79.6,72.6,79.6,72.7,79.7,72.6L79.7,72.6z"/>
	<path class="st0" d="M79.8,72.6c-0.1,0-0.1,0-0.2,0C79.7,72.6,79.8,72.6,79.8,72.6z"/>
	<path class="st0" d="M80.2,72.6c-0.2,0-0.3,0-0.4,0.1C79.9,72.6,80.1,72.6,80.2,72.6z"/>
	<path class="st0" d="M74,41L62.1,52.9l19.5,19.5c9.5-1.3,12.6,6.1,12.6,6.1L78.5,94c0,0-7.4-3-6.1-12.6L53,62L41.1,73.9l14.7,42.9
		l62.5,62.5c1.9,1.9,5,1.9,6.9,0l54.1-54.1c1.9-1.9,1.9-5,0-6.9l-62.5-62.5L74,41z"/>
	<path class="st0" d="M81.5,72.4C81.5,72.4,81.5,72.4,81.5,72.4C81.5,72.4,81.5,72.4,81.5,72.4z"/>
	<path class="st0" d="M81.4,72.4c-0.1,0-0.1,0-0.2,0C81.3,72.4,81.4,72.4,81.4,72.4z"/>
	<path class="st0" d="M81.2,72.4c-0.2,0-0.4,0.1-0.7,0.1C80.8,72.5,81,72.5,81.2,72.4z"/>
	<path class="st0" d="M80.6,72.5c-0.1,0-0.3,0-0.3,0C80.3,72.5,80.5,72.5,80.6,72.5z"/>
	<path class="st0" d="M84.1,84.1c1-1,1-2.7,0-3.7l-39-39c-1-1-2.7-1-3.7,0c-1,1-1,2.7,0,3.7l39,39C81.5,85.1,83.1,85.1,84.1,84.1z"
		/>
</g>
</svg>
